<?xml version="1.0" encoding="utf-8"?>
<!-- Generator: Adobe Illustrator 22.0.0, SVG Export Plug-In . SVG Version: 6.00 Build 0)  -->
<svg version="1.1" id="Lager_1" xmlns="http://www.w3.org/2000/svg" xmlns:xlink="http://www.w3.org/1999/xlink" x="0px" y="0px"
	 viewBox="0 0 806.6 364.9" style="enable-background:new 0 0 806.6 364.9;" xml:space="preserve">
<style type="text/css">
	.st0{fill:#74736D;}
	.st1{fill:#B81867;}
	.st2{fill:none;}
</style>
<path class="st0" d="M292.9,167.7c0,4.3-0.9,7.3-2.8,9c-1.5,1.4-3.5,2-6.5,2c-0.4,0-0.9,0-1.3,0c-0.1-6.7-0.1-13.6,0-20.3
	c1.2-0.1,2.3-0.1,3.3-0.1C287.9,158.3,292.9,158.3,292.9,167.7 M296.7,193.9l-4-9.6c5.6-2.3,8.5-8.1,8.5-16.9c0-17-10.6-17-14.6-17
	c-1,0-2.3,0-3.6,0.1c-1.3,0-2.6,0.1-3.6,0.1c-1.6,0.1-3.2,0.1-5,0.1h-0.4l-0.7,1l0,0.2c0.5,10.6,0.5,40.4,0.5,40.7
	c0,5.7,0,11-0.1,16.6v2.6l0.7,1l0.4,0c3.1-0.3,3.8-0.3,6.8-0.3h0.3l0.7-0.9l0-0.2c-0.4-8.8-0.4-19.9-0.4-24.9c1.1,0,1.7,0,2.8-0.1
	l0.9,2.5c1.1,2.9,2.6,6.9,4,10.7l2.1,5.5c1.2,3.2,1.6,4.4,2.3,6.7l0.1,0.2l1,0.8l0.3,0c2.8-0.2,4.2-0.3,7.5-0.3h0.4l0.6-1.3
	l-0.1-0.3C301.9,206.2,301.5,205.3,296.7,193.9"/>
<path class="st0" d="M320.5,173c0.6,0,3.9,0.3,4.9,6.3c0.3,1.7,0.3,3.1,0.3,4.5h-11.1c0.1-2,0.5-5.3,2-7.9
	C317.7,174,319,173,320.5,173 M326.3,167.2c-1.6-1-3.5-1.5-5.5-1.5c-2,0-4,0.5-5.7,1.5c-5.6,3.4-8.7,11.3-8.7,22.3
	c0,7.5,1.3,13.2,3.9,17.3c3.8,5.9,8.7,6.6,12.1,6.6c1.3,0,3.8-0.1,6.2-1c1.6-0.5,2.4-1.2,3-1.5l0.5-0.9l0.2-2.2
	c0.1-1.4,0.1-2.3,0.2-4.3l0-0.4l-1.3-0.7l-0.4,0.3c-1.2,1.1-3.3,3-6.9,3c-3.9,0-6.8-2.2-8.3-6.4c-1-2.7-1.2-5.6-1.3-8.3h18.4
	l0.9-0.9l0-0.3C333.9,180.8,333.1,171.2,326.3,167.2"/>
<path class="st0" d="M382.2,183.4c0-5.8,0.1-10.7,0.2-16.2l0-0.2l-0.7-1.1l-0.5,0.1c-3.1,0.8-3.8,0.9-6.7,1.4l-0.3,0l-0.7,0.9l0,0.3
	c0.2,2.7,0.5,6.8,0.5,23.9c0,8.7-0.1,14-0.3,18.9l0,0.3l0.8,1l0.4,0c3-0.3,3.9-0.3,6.7-0.2l0.4,0l0.7-1l0-0.2
	C382.5,205.8,382.2,199.1,382.2,183.4"/>
<path class="st0" d="M373.9,152c0,1.3,0,2.5-0.1,3.7l0,0.3l0.9,1l0.4-0.1c2.7-0.6,3.7-0.8,6.2-1l0.3,0l0.8-0.9l0-0.3
	c-0.1-2.6-0.1-3.8,0.1-7.2l0-0.3l-0.9-1l-0.4,0.1c-2.6,0.5-3.3,0.6-6.2,0.9l-0.2,0l-0.8,0.9l0,0.3
	C373.9,149.7,373.9,150.8,373.9,152"/>
<path class="st0" d="M407.9,202.4c-0.6,1.5-1.7,3.5-4.4,3.5c-2,0-4.9-1-6-9.3c-0.3-2.1-0.5-4.6-0.5-7.6c0-7.3,1.1-16,6.5-16
	c2.3,0,3.5,1.6,4.3,3c1.4,3,2.1,7.7,2.1,14.1C409.8,195.6,409.2,199.6,407.9,202.4 M403.8,165.7c-4.5,0-8.1,1.8-10.7,5.2
	c-3,4-4.6,10.3-4.6,18.6c0,3,0,12,4,17.9c2.5,3.8,6.4,5.9,10.8,5.9c4.8,0,8.6-2.1,11.2-6.4c2.5-4,3.7-9.6,3.7-16.8
	c0-9-1.6-15.6-4.8-19.7C411,167.4,407.7,165.7,403.8,165.7"/>
<path class="st0" d="M451.3,194.7l-0.1-8.8c0-7.2,0-9.4-1.1-12.9c-1.5-4.8-4.2-7.2-8.2-7.2c-3.9,0-6.9,2.1-9.3,4.5
	c0-0.8,0.1-1.4,0.1-2l0.1-1.4l-0.8-1.1l-0.6,0.2c-2.8,0.7-3.7,1-6.4,1.4l-0.3,0l-0.6,0.9l0,0.2c0.4,8.7,0.5,17.4,0.5,25.5
	c0,8.4-0.1,13.7-0.3,17.3l0,0.2l0.8,1l1.3-0.1c1.9-0.1,2.8-0.2,5.4-0.1l0.3,0l0.8-1l0-0.3c-0.4-7.7-0.4-25.8-0.4-32.9
	c0.9-1.2,3.5-4.1,6.3-4.1c3.5,0,4.1,4,4.2,7c0.1,3.1,0.1,8.6,0.1,12.4c0,2.8-0.1,11.2-0.2,17.9l0,0.2l0.7,1l0.4,0
	c2.8-0.2,3.3-0.2,6.4-0.2h0.3l0.8-1l0-0.3C451.3,207.1,451.3,205.7,451.3,194.7"/>
<path class="st0" d="M507.4,150.5c-1.3,0.1-2.3,0.1-4.6,0.1h-0.3l-0.8,1l0,0.2c0.3,9.8,0.3,19.8,0.3,29.4c0,9.9,0,14.5-1.1,17.9
	c-0.7,2.3-2.5,6-7.1,6c-3.7,0-6.3-2.4-7.4-6.8c-0.8-3.3-0.9-9.2-0.9-16.7c0-8.7,0-21.7,0.2-30.1l0-0.2l-0.8-1l-0.3,0
	c-3.1,0.2-3.8,0.2-7.1,0.2h-0.4l-0.7,1l0,0.2c0.2,8.7,0.3,18.1,0.3,30.4v4.5c0,6.9,0,11.4,1.5,15.9c1.6,5,5.5,10.9,14.8,10.9
	c2.2,0,8.8,0,13.1-7.1c3.4-5.6,3.4-12.5,3.4-20.5v-9.1c0-3,0-6,0.1-9c0.1-9.9,0.1-13.2,0.1-16.3v-0.2l-0.7-1L507.4,150.5z"/>
<path class="st0" d="M538,187.6c0,5-0.8,9.5-2.2,12.4c-2.6,5.1-6.8,5.1-8.2,5.1c-0.5,0-0.9,0-1.3-0.1c-0.1-8.5-0.1-14-0.1-27.6
	c1.4-1.9,3-3.7,5.4-3.7c2.5,0,4,2.1,4.6,3.4c0.7,1.5,1.2,3.4,1.4,5.5C537.9,184.1,538,185.6,538,187.6 M538.1,166.7
	c-1.4-0.7-2.8-1-4.2-1c-3.7,0-6.2,2-7.8,3.6v-2.5l-0.9-0.9l-0.4,0.1c-2.9,0.8-3.7,0.9-6.6,1.4l-0.3,0l-0.5,0.8l-0.1,0.3l0,0.2
	c0.3,6,0.7,13.4,0.7,35.8c0,9.9-0.1,14-0.2,22.2l0,2.6l0.7,1l0.7,0c1.7-0.1,3.2-0.2,4.9-0.1c0.5,0,1,0,1.5,0h0.4l0.7-1l-0.2-6
	c-0.1-4.6-0.2-6.5-0.2-10.7c0.3,0,0.5,0,0.7,0.1c0.7,0,1.2,0.1,1.8,0.1c6.8,0,10.8-3.7,12.9-6.8c3.1-4.5,4.6-10.8,4.6-18.8
	C546.3,176.9,543.3,169.5,538.1,166.7"/>
<path class="st0" d="M572.5,187.6c0,5-0.8,9.5-2.2,12.4c-2.6,5.1-6.8,5.1-8.2,5.1c-0.5,0-0.9,0-1.3-0.1c-0.1-8.5-0.1-14-0.1-27.6
	c1.4-1.9,3-3.7,5.4-3.7c2.5,0,4,2.1,4.6,3.4c0.7,1.5,1.2,3.4,1.4,5.5C572.4,184,572.5,185.6,572.5,187.6 M572.6,166.7
	c-1.4-0.7-2.8-1-4.2-1c-3.7,0-6.2,2-7.8,3.6v-2.5l-0.9-0.9l-0.4,0.1c-2.9,0.8-3.7,0.9-6.6,1.4l-0.3,0l-0.5,0.8l-0.1,0.3l0,0.2
	c0.3,6,0.7,13.4,0.7,35.8c0,9.9-0.1,14.1-0.2,22.4l0,2.4l0.7,1l0.7,0c1.7-0.1,3.2-0.2,4.9-0.1c0.5,0,1,0,1.5,0h0.4l0.7-1l-0.2-6
	c-0.1-4.6-0.2-6.4-0.2-10.6c0.3,0,0.5,0,0.7,0.1c0.7,0,1.2,0.1,1.8,0.1c6.8,0,10.8-3.7,12.9-6.8c3.1-4.5,4.6-10.8,4.6-18.8
	C580.8,176.9,577.8,169.5,572.6,166.7"/>
<path class="st0" d="M599.2,185.7l-2.2-1.4c-2.1-1.5-4-2.8-4-6c0-3.3,1.9-5.4,4.9-5.4c1.7,0,4.3,0.8,6.1,2.9l0.3,0.3l1.3-0.5v-0.5
	c0-1,0-2.1,0.1-3.2c0-1.1,0.1-2.1,0.1-3.1l0-0.1l-0.3-1l-0.2-0.1c-3.3-1.7-7-1.9-8-1.9c-4,0-7.2,1.4-9.4,4.1
	c-1.9,2.4-2.9,5.7-2.9,9.4c0,7.4,3.8,10.1,7.8,13l2,1.4c2.3,1.7,4.1,3,4.1,6.5c0,3-1.6,6.2-5.2,6.2c-3.5,0-5.9-2.3-7.1-3.4l-0.4-0.3
	l-1.3,0.7v0.4c0,0.9,0,1.9-0.1,2.9c0,1.1-0.1,2.2-0.1,3.3l0,0.2l0.5,1.1l0.2,0.1c2.6,1.5,5.5,2.2,8.8,2.2c2.6,0,6.5-0.5,9.6-4.4
	c1.5-1.8,3.2-5.1,3.2-9.9C607.3,191.3,602.9,188.2,599.2,185.7"/>
<path class="st0" d="M623.9,205.4c-2.3,0-4.9-1.9-4.9-7.1c0-2.5,0.4-6,3.9-8.2c1.4-0.9,2.4-1.2,6.2-2.2v14.5
	C628.1,203.6,626.4,205.4,623.9,205.4 M636.9,193.6v-8.9l0-0.5c0.1-6.5,0.1-9.5-1.2-12.6c-2.6-5.9-8.3-5.9-10.2-5.9
	c-3.6,0-7.5,1-10.4,2.7l-0.2,0.1l-0.4,0.8l-0.1,1c-0.1,2.3-0.1,2.9-0.3,5.3l0,0.4l1.2,0.9l0.4-0.3c1.3-1.1,3.6-3.1,8-3.1
	c4.9,0,5.3,2.8,5.4,7.7l-2.5,0.6c-5,1.2-15.4,3.8-15.4,17.4c0,8.3,4.3,14.1,10.5,14.1c3.6,0,6-1.6,7.5-3l0,1.6l0.8,1l0.4,0
	c2.6-0.2,3-0.2,5.9-0.2h0.3l0.8-1l0-0.3C636.9,205.4,636.9,201.7,636.9,193.6"/>
<path class="st0" d="M652.6,163.8c0-8,0.1-12.2,0.1-16.7l0-0.5l-0.8-1l-1.3,0.3c-2.1,0.5-3.1,0.8-5.8,1.2l-0.3,0l-0.6,0.9l0,0.2
	c0.2,3.1,0.3,5.4,0.5,12c0.2,10.2,0.2,20.5,0.2,30.5c0,8.5-0.1,14.8-0.1,20.5l0,0.2l0.7,1l0.4,0c3-0.3,3.9-0.3,6.6-0.2l0.3,0l0.8-1
	l0-0.3C652.6,197,652.6,164.1,652.6,163.8"/>
<path class="st0" d="M671.5,205.4c-2.3,0-4.9-1.9-4.9-7.1c0-2.5,0.4-6,3.9-8.2c1.4-0.9,2.4-1.2,6.2-2.2v14.5
	C675.6,203.6,674,205.4,671.5,205.4 M684.9,211.2c-0.4-5.8-0.4-9.5-0.4-17.6v-8.9l0-0.5c0.1-6.5,0.1-9.5-1.2-12.6
	c-2.6-5.9-8.3-5.9-10.2-5.9c-3.6,0-7.5,1-10.4,2.7l-0.2,0.1l-0.4,0.8l-0.1,1c-0.1,2.3-0.1,2.9-0.3,5.3l0,0.4l1.2,0.9l0.4-0.3
	c1.3-1.1,3.6-3.1,8-3.1c4.9,0,5.3,2.8,5.4,7.7l-2.5,0.6c-5,1.2-15.4,3.8-15.4,17.4c0,8.3,4.3,14.1,10.5,14.1c3.6,0,6-1.6,7.5-3
	l0,1.6l0.8,1l0.3,0c2.6-0.2,3-0.2,5.9-0.2h0.3l0.8-1L684.9,211.2z"/>
<path class="st0" d="M358.2,186.5L358.2,186.5c0,0.9,0,1.7,0,2.5v13.7c-1.5,1.9-3.1,2.8-4.9,2.8c-2,0-3.5-1.1-4.8-3.3
	c-1.4-2.6-2.1-6.3-2.1-11.2c0-4.9,0.8-13.5,6.1-16c0.4-0.2,1.5-0.7,4-0.7c0.7,0,1.2,0,1.7,0.1V186.5z M366.6,205.8l-0.1-10.5
	c-0.1-5.4-0.1-11.9-0.2-16.8c0-0.5,0-1,0-1.5l0,0c0-2.9,0.1-6,0.3-9.4l0-0.2l-0.7-1l-0.4,0c-2,0.2-3.3,0.2-5,0.2c-5,0-10.1,0-14.2,3
	c-7.2,5.1-8.2,16-8.2,22.1c0,9.9,2.9,17.2,8,20.1c1.9,1.1,3.9,1.4,5.3,1.4c3.3,0,5.6-1.5,6.9-2.7l0.2-0.1c0,0.5,0,0.9,0,1.4
	c0,9.3-0.7,10.8-3.3,11.1c-1.1,0.2-2.1,0.1-3,0.1c-3.6-0.2-5.7-1.9-6.9-3l-0.4-0.3l-1.3,0.7l0,0.4c0.1,2,0.2,2.9,0.2,4.3l0.2,2.2
	l0.6,0.9c0.5,0.4,1.4,1,3,1.5c2.3,0.9,4.9,1,6.2,1c0.6,0,1.3,0,2-0.1c2.1-0.1,6.6-0.5,9.1-5.9C366.7,220.8,366.7,216.7,366.6,205.8"
	/>
<path class="st1" d="M231.3,226.1V136c0,0,0.1-3.8-3.8-3.8h-36.7c0,0,3.7,3.8,3.7,11.7v2.9c19.2,1.7,24.2,13.2,24.2,23.5v26.2
	c0,17.4-14.8,25.3-14.8,25.3s-7.1-3.7-9.4-6.3c-3,3.4-10.6,11-13,11c-2.4,0-9.7-7.6-12.6-11c-2.1,2.5-9.3,6.2-9.3,6.2
	s-15.2-7.9-15.2-25.5v-26c0-10.5,4.9-21.2,22-23.1c0,0-1.8-7.7-12.3-7.7c-10.8,0-22.7,8.8-22.7,27.1v60.2c0,0,0.1,4.4,4.4,4.4h90.3
	C231.7,231.2,231.3,226.1,231.3,226.1 M202.5,182.3v16.3c0,6.6-7.2,11.6-2.5,11.6c4.8,0,9.2-9.4,9.2-13.8c0-1.8,0-26.6,0-28.6
	c0-6.5-4.4-13.8-9.2-13.8c-6.3,0,2.5,3.4,2.5,10L202.5,182.3L202.5,182.3z M181.5,214.2c3.3,0,12.1-12.3,12.1-18.4v-33.9
	c0-1.4-2.7-8-8-8h-8.2c-5.5,0-8,6.5-8,8v33.9C169.4,201.9,178.4,214.2,181.5,214.2 M153.9,167.8v28.6c0,4.3,4.4,13.8,9.2,13.8
	c5.2,0-2.5-4.9-2.5-11.6v-16.3v-18.3c0-6.6,8.9-10,2.5-10C158.3,154.1,153.9,160.6,153.9,167.8 M153.2,129.6
	c21.9,0,23.4,17.3,23.4,17.3h8.4c0-11.9-7.7-24.8-28-24.8l0-1h74.2c6.8,0,10.5,4.1,10.5,10.9v99c0,6.9-3.7,11.1-10.6,11.1h-99.7
	c-6.8,0-10.8-4-10.8-11.1V165C120.8,155.6,125,129.6,153.2,129.6"/>
<rect x="0.1" class="st2" width="805.8" height="363"/>
</svg>
